# xmcd
# 
# Track frame offsets:
#     150
#     16048
#     34681
#     57026
#     73627
#     89357
#     105450
#     123071
#     136396
#     153385
#     172118
#     188031
#     208440
#     223852
#     240611
#     256927
#     274736
#     291074
# 
# Disc length: 4103
# 
# Revision: 1
# Processed by: cddbd v1.5.2PL0 Copyright (c) Steve Scherf et al.
# Submitted via: BonkEnc v1.0.8
# 
DISCID=02100512
DTITLE=Various Artist - Back 2 The Dance Anthology [CD5)
DYEAR=2008
DGENRE=Dance
TTITLE0=Eiffel 65 - Blue (Da Ba Dee)
TTITLE1=Eiffel 65 - Here Comes The Hotstepper
TTITLE2=Wamdue Project - King Of My Castle
TTITLE3=Snap! - Rhythm Is A Dancer
TTITLE4=Dr. Alban - Sing Hallelujah! Recall 2004
TTITLE5=20 Fingers Feat. Roula - Lick It
TTITLE6=Playahitty - The Summer Is Magic
TTITLE7=The Tamperer Feat. Maya - Feel It
TTITLE8=Juice T - Love U For Life
TTITLE9=Robin S. - Luv 4 Luv
TTITLE10=740 Boyz - Shimmy Shake
TTITLE11=2 Unlimited - Tribal Dance
TTITLE12=Disco Blu - Disco Blu
TTITLE13=De La Soul - Me, Myself and I
TTITLE14=Double You - We All Need Love
TTITLE15=Corona - I Don’T Wanna Be A Star
TTITLE16=Floorfilla - Anthem # 3
TTITLE17=Cher - Strong Enough
EXTD=
EXTT0=
EXTT1=
EXTT2=
EXTT3=
EXTT4=
EXTT5=
EXTT6=
EXTT7=
EXTT8=
EXTT9=
EXTT10=
EXTT11=
EXTT12=
EXTT13=
EXTT14=
EXTT15=
EXTT16=
EXTT17=
PLAYORDER=
